<svg width="328" height="49" viewBox="0 0 328 49" fill="none" xmlns="http://www.w3.org/2000/svg">
    <path
        d="M16.512 15.616C16.512 18.3893 15.872 20.736 14.592 22.656C13.312 24.5333 11.2427 25.472 8.384 25.472C5.52533 25.472 3.41333 24.576 2.048 22.784C0.682667 20.992 0 18.816 0 16.256C0 12.0747 1.984 8.74666 5.952 6.272C9.92 3.79733 16.2347 2.56 24.896 2.56C39.9573 2.56 47.488 6.912 47.488 15.616C47.488 19.968 45.4613 23.04 41.408 24.832C43.8827 25.6853 45.8453 27.0933 47.296 29.056C48.7467 30.976 49.472 33.3013 49.472 36.032C49.472 39.7013 48.1707 42.7307 45.568 45.12C42.9653 47.4667 39.168 48.64 34.176 48.64C33.2373 48.64 31.0613 48.5333 27.648 48.32C24.2347 48.1067 21.504 48 19.456 48H13.248V43.2H19.456V7.552C14.2507 7.936 10.56 8.85333 8.384 10.304C6.208 11.7547 5.12 13.7387 5.12 16.256C5.12 17.536 5.39733 18.6027 5.952 19.456C6.50667 20.2667 7.31733 20.672 8.384 20.672C10.3893 20.672 11.392 18.9867 11.392 15.616H16.512ZM28.096 27.712V22.912H34.432C36.608 22.912 38.4213 22.272 39.872 20.992C41.3227 19.712 42.048 17.92 42.048 15.616C42.048 12.8 40.7467 10.7307 38.144 9.408C35.5413 8.04266 31.1253 7.36 24.896 7.36V43.392C30.1867 43.6907 33.6 43.84 35.136 43.84C37.824 43.84 39.9787 43.136 41.6 41.728C43.2213 40.2773 44.032 38.272 44.032 35.712C44.032 33.152 43.2 31.1893 41.536 29.824C39.9147 28.416 37.7813 27.712 35.136 27.712H28.096ZM58.397 43.968C55.709 40.8107 54.365 36.8213 54.365 32C54.365 27.1787 55.709 23.2107 58.397 20.096C61.085 16.9387 64.861 15.36 69.725 15.36C74.589 15.36 78.365 16.9387 81.053 20.096C83.741 23.2107 85.085 27.1787 85.085 32C85.085 36.8213 83.741 40.8107 81.053 43.968C78.365 47.0827 74.589 48.64 69.725 48.64C64.861 48.64 61.085 47.0827 58.397 43.968ZM62.429 23.488C60.6797 25.7067 59.805 28.544 59.805 32C59.805 35.456 60.6797 38.2933 62.429 40.512C64.1783 42.7307 66.6103 43.84 69.725 43.84C72.8397 43.84 75.2717 42.7307 77.021 40.512C78.7703 38.2933 79.645 35.456 79.645 32C79.645 28.544 78.7703 25.7067 77.021 23.488C75.2717 21.2693 72.8397 20.16 69.725 20.16C66.6103 20.16 64.1783 21.2693 62.429 23.488ZM93.5845 43.968C90.8965 40.8107 89.5525 36.8213 89.5525 32C89.5525 27.1787 90.8965 23.2107 93.5845 20.096C96.2725 16.9387 100.049 15.36 104.913 15.36C109.777 15.36 113.553 16.9387 116.241 20.096C118.929 23.2107 120.273 27.1787 120.273 32C120.273 36.8213 118.929 40.8107 116.241 43.968C113.553 47.0827 109.777 48.64 104.913 48.64C100.049 48.64 96.2725 47.0827 93.5845 43.968ZM97.6165 23.488C95.8672 25.7067 94.9925 28.544 94.9925 32C94.9925 35.456 95.8672 38.2933 97.6165 40.512C99.3658 42.7307 101.798 43.84 104.913 43.84C108.027 43.84 110.459 42.7307 112.209 40.512C113.958 38.2933 114.833 35.456 114.833 32C114.833 28.544 113.958 25.7067 112.209 23.488C110.459 21.2693 108.027 20.16 104.913 20.16C101.798 20.16 99.3658 21.2693 97.6165 23.488ZM133.508 43.84H138.436V48H123.14V43.84H128.068V4.16H123.14V-3.8147e-06H133.508V30.016L137.412 28.608L144.964 20.16H142.596V16H154.628V20.16H151.876L141.764 31.168L151.94 44.16H156.804V46.848C155.865 47.4027 155.033 47.7867 154.308 48C153.583 48.2133 152.431 48.32 150.852 48.32C149.273 48.32 147.865 47.5093 146.628 45.888L137.412 33.792L133.508 35.2V43.84ZM179.505 14.272C179.505 10.5173 180.913 7.552 183.729 5.376C186.545 3.2 190.022 2.112 194.161 2.112C198.3 2.112 201.692 3.09333 204.337 5.056C207.025 6.976 208.369 9.38666 208.369 12.288C208.369 15.1467 207.729 17.472 206.449 19.264C205.212 21.0133 203.206 21.888 200.433 21.888C197.702 21.888 195.697 20.992 194.417 19.2C193.137 17.408 192.497 15.232 192.497 12.672H197.617C197.617 15.616 198.577 17.088 200.497 17.088C202.332 17.088 203.249 15.616 203.249 12.672C203.249 10.88 202.417 9.472 200.753 8.448C199.132 7.424 196.998 6.912 194.353 6.912C191.75 6.912 189.51 7.53067 187.633 8.768C185.798 10.0053 184.881 11.648 184.881 13.696C184.881 15.744 185.713 17.472 187.377 18.88C189.084 20.288 191.153 21.6107 193.585 22.848C196.06 24.0427 197.489 24.7467 197.873 24.96C198.257 25.1733 199.089 25.6213 200.369 26.304C201.649 26.944 202.481 27.4347 202.865 27.776C203.292 28.0747 203.953 28.5653 204.849 29.248C205.788 29.9307 206.428 30.528 206.769 31.04C207.11 31.552 207.516 32.1707 207.985 32.896C208.796 34.2187 209.201 35.8613 209.201 37.824C209.201 41.408 207.708 44.096 204.721 45.888C201.777 47.6373 197.681 48.512 192.433 48.512C187.185 48.512 182.684 47.424 178.929 45.248V36.608H183.409V41.792C186.268 43.072 189.361 43.712 192.689 43.712C196.06 43.712 198.726 43.1147 200.689 41.92C202.694 40.7253 203.697 39.1893 203.697 37.312C203.697 35.5627 202.694 33.9627 200.689 32.512C199.11 31.4453 196.209 29.8667 191.985 27.776C187.804 25.6853 184.668 23.68 182.577 21.76C180.529 19.84 179.505 17.344 179.505 14.272ZM212.155 20.16V16.64L217.083 16H217.723C219.088 12.8 220.006 9.984 220.475 7.552H223.163V16H232.699V20.16H223.163V39.808C223.163 41.2587 223.398 42.304 223.867 42.944C224.379 43.584 225.232 43.904 226.427 43.904C227.622 43.904 229.222 43.4987 231.227 42.688L233.339 46.336C230.907 47.872 228.304 48.64 225.531 48.64C222.758 48.64 220.752 47.9147 219.515 46.464C218.32 45.0133 217.723 43.136 217.723 40.832V20.16H212.155ZM240.897 43.968C238.209 40.8107 236.865 36.8213 236.865 32C236.865 27.1787 238.209 23.2107 240.897 20.096C243.585 16.9387 247.361 15.36 252.225 15.36C257.089 15.36 260.865 16.9387 263.553 20.096C266.241 23.2107 267.585 27.1787 267.585 32C267.585 36.8213 266.241 40.8107 263.553 43.968C260.865 47.0827 257.089 48.64 252.225 48.64C247.361 48.64 243.585 47.0827 240.897 43.968ZM244.929 23.488C243.18 25.7067 242.305 28.544 242.305 32C242.305 35.456 243.18 38.2933 244.929 40.512C246.678 42.7307 249.11 43.84 252.225 43.84C255.34 43.84 257.772 42.7307 259.521 40.512C261.27 38.2933 262.145 35.456 262.145 32C262.145 28.544 261.27 25.7067 259.521 23.488C257.772 21.2693 255.34 20.16 252.225 20.16C249.11 20.16 246.678 21.2693 244.929 23.488ZM281.461 43.84H287.029V48H271.093V43.84H276.021V20.16H271.093V16H280.245L281.013 19.392C282.463 18.5813 283.637 17.9627 284.533 17.536C285.429 17.0667 286.709 16.5973 288.373 16.128C290.079 15.616 291.722 15.36 293.301 15.36L296.885 16.32L295.413 21.568L292.533 20.8C288.949 20.8 285.258 21.696 281.461 23.488V43.84ZM327.022 29.824V33.216H304.43C304.643 36.3307 305.561 38.8907 307.182 40.896C308.803 42.8587 310.979 43.84 313.71 43.84C315.502 43.84 317.102 43.648 318.51 43.264C319.961 42.88 320.963 42.5387 321.518 42.24C322.073 41.8987 322.841 41.408 323.822 40.768L326.19 44.352C322.947 47.2107 318.894 48.64 314.03 48.64C309.166 48.64 305.433 47.0827 302.83 43.968C300.27 40.8107 298.99 36.8213 298.99 32C298.99 27.1787 300.27 23.2107 302.83 20.096C305.433 16.9387 308.953 15.36 313.39 15.36C317.87 15.36 321.262 16.704 323.566 19.392C325.87 22.08 327.022 25.5573 327.022 29.824ZM321.582 28.672C321.326 26.0693 320.537 24 319.214 22.464C317.934 20.928 316.078 20.16 313.646 20.16C311.257 20.16 309.294 20.9493 307.758 22.528C306.222 24.064 305.198 26.112 304.686 28.672H321.582Z"
        fill="#FF2A2A" />
</svg>