<svg width="460" height="95" viewBox="0 0 460 95" fill="none" xmlns="http://www.w3.org/2000/svg">
    <path d="M410.12 65.9446C420.949 65.9446 429.729 57.6865 429.729 47.5001C429.729 37.3135 420.949 29.0557 410.12 29.0557C399.29 29.0557 390.511 37.3135 390.511 47.5001C390.511 57.6865 399.29 65.9446 410.12 65.9446Z" stroke="black" stroke-width="10.52" stroke-linecap="round" stroke-linejoin="round"/>
    <path d="M366 65.9444V29.0556C366 16.3223 376.974 6 390.511 6H429.729C443.266 6 454.24 16.3223 454.24 29.0556V65.9444C454.24 78.6776 443.266 89 429.729 89H390.511C376.974 89 366 78.6776 366 65.9444Z" stroke="black" stroke-width="10.52"/>
    <path d="M437.082 22.1845L437.131 22.1333" stroke="black" stroke-width="10.52" stroke-linecap="round" stroke-linejoin="round"/>
    <path d="M333.24 29.0556V65.9444C333.24 78.6776 322.142 89 308.451 89H268.789C255.098 89 244 78.6776 244 65.9444V29.0556C244 16.3223 255.098 6 268.789 6H308.451C322.142 6 333.24 16.3223 333.24 29.0556Z" stroke="black" stroke-width="10.52" stroke-linecap="round" stroke-linejoin="round"/>
    <path d="M283.662 89.0001C283.662 75.1668 283.662 61.3334 283.662 47.5001C283.662 37.4133 286.141 29.0557 303.493 29.0557" stroke="black" stroke-width="10.52" stroke-linecap="round" stroke-linejoin="round"/>
    <path d="M273.747 52.1111H283.662H303.493" stroke="black" stroke-width="10.52" stroke-linecap="round" stroke-linejoin="round"/>
    <path d="M213.24 11.0404C213.24 11.0404 205.513 15.8238 201.217 17.1796C198.91 14.4009 195.846 12.4315 192.437 11.5376C189.028 10.6438 185.439 10.8686 182.156 12.1817C178.873 13.4949 176.053 15.8329 174.08 18.8797C172.106 21.9265 171.073 25.535 171.12 29.2172V33.2297C164.391 33.4125 157.723 31.8487 151.71 28.6773C145.698 25.5059 140.527 20.8255 136.658 15.0529C136.658 15.0529 121.342 51.166 155.804 67.2162C147.918 72.8253 138.524 75.6381 129 75.2412C163.462 95.304 205.582 75.2412 205.582 29.0968C205.578 27.9791 205.476 26.8642 205.275 25.7664C209.183 21.7277 213.24 11.0404 213.24 11.0404Z" stroke="black" stroke-width="8.60727" stroke-linecap="round" stroke-linejoin="round"/>
    <path d="M90.24 12L5 50.5L36.4042 55.6333M90.24 12L79.0242 89L36.4042 55.6333M90.24 12L36.4042 55.6333M36.4042 55.6333V83.8667L50.9794 67.0442" stroke="black" stroke-width="9.96632" stroke-linecap="round" stroke-linejoin="round"/>
</svg>
